<svg xmlns="http://www.w3.org/2000/svg" width="2500" height="2500"><path fill-opacity=".047" d="M0 1250v1250.001l1250.25-.251 1250.25-.25.25-1249.75L2501.001 0H0v1250m.498.5c0 687.5.114 968.6.252 624.667s.138-906.433 0-1250S.498 563 .498 1250.5" fill="#1976D2" fill-rule="evenodd"/><path fill-opacity=".272" d="M1209.5 240.669c-21.778 1.345-37.318 2.69-51 4.413-125.064 15.753-243.203 68.126-340.5 150.951-19.24 16.378-57.216 54.555-74.077 74.467-90.419 106.786-142.647 235.131-153.007 376-1.52 20.661-1.537 68.255-.032 90 6.231 90.079 30.702 176.829 72.353 256.5 67.202 128.541 176.676 232.145 308.963 292.395 85.007 38.716 173.227 57.672 268.574 57.708 40.812.016 74.706-2.766 112.226-9.21 172.617-29.647 328.259-130.522 428.251-277.557 50.481-74.23 86.555-163.107 101.699-250.558 7.157-41.329 9.559-70.29 9.519-114.778-.032-34.73-.856-49.197-4.558-80-13.514-112.438-57.295-219.983-127.427-313.022-33.896-44.966-81.352-92.262-127.134-126.705-103.984-78.23-225.256-122.769-354.634-130.245-16.068-.929-56.588-1.139-69.216-.359m-17 55.93c-110.676 8.853-219.601 50.186-309 117.254-43.649 32.745-87.568 76.49-119.121 118.647-67.634 90.363-108.166 195.891-117.989 307.193-3.112 35.27-1.641 108.34 2.568 127.526 1.724 7.861 49.257 54.513 89.542 87.884 36.118 29.92 80.409 60.444 121.216 83.539 123.833 70.083 260.068 104.929 398.784 102 52.003-1.097 94.182-5.903 145.073-16.528 29.678-6.196 48.151-11.175 80.927-21.814 119.744-38.867 233.338-109.91 327.708-204.952l19.708-19.848 1.028-6.545c4.372-27.817 6.047-94.491 3.228-128.455-10.32-124.311-59.862-243.069-141.211-338.5-15.929-18.686-47.474-50.234-65.961-65.967-97.011-82.558-216.395-132.03-341.5-141.514-24.467-1.855-71.301-1.816-95 .08m33 65.012c-9.31 1.349-24.41 4.823-31.744 7.302-11.012 3.723-28.918 12.696-38.366 19.228-11.749 8.122-30.572 26.801-39.004 38.705-.135.191-3.403-.372-7.263-1.25-10.326-2.348-27.648-2.118-38.183.508-28.66 7.144-56.02 29.827-67.891 56.288l-2.823 6.291-13.863.633c-22.793 1.041-42.376 6.118-62.309 16.157-13.682 6.89-27.676 17.367-39.676 29.705-7.154 7.355-16.759 18.811-16.185 19.305.169.146 5.032 1.245 10.807 2.443s16.141 4.011 23.036 6.251l12.537 4.073 13.963-4.559c25.514-8.331 46.504-11.325 72.862-10.393 26.834.948 48.367 5.253 71.167 14.225 51.483 20.261 91.891 56.602 115.743 104.094l4.528 9.016 10.332 2.222c5.683 1.223 17.388 4.519 26.012 7.325l15.68 5.101 7.82-3.135c10.276-4.119 21.665-7.431 33.092-9.624l9.272-1.779 4.943-9.621c12.946-25.2 29.906-46.975 50.412-64.722 31.36-27.141 68.668-44.61 108.724-50.909 5.707-.897 17.853-1.885 26.991-2.196 26.833-.911 47.068 1.962 73.297 10.407l13.912 4.48 12.588-4.131c6.924-2.271 17.413-5.132 23.309-6.356l10.721-2.227-8.512-10.206c-28.303-33.937-66.767-53.09-110.402-54.975l-13.527-.585-2.991-6.601c-9.548-21.071-31.227-41.889-53.227-51.111-12.185-5.108-21.477-6.994-34.22-6.946-6.359.024-13.362.427-15.562.897-2.2.469-5.35 1.156-7 1.527-2.75.617-3.334.23-7-4.633-9.458-12.546-26.182-28.092-39.127-36.373-8.754-5.6-24.808-13.311-34.412-16.529-16.825-5.636-25.758-7.064-46.461-7.426-10.45-.182-20.35-.136-22 .104m256.202 252.493c-25.818 2.089-44.813 7.94-66.202 20.391-35.576 20.711-60.861 53.554-72.15 93.718l-2.684 9.55-11.848.707-11.849.707 11.526 12.03c30.625 31.967 51.219 67.822 61.578 107.211 11.02 41.902 11.582 79.849 1.833 123.69-2.868 12.899-3.004 14.257-1.511 15.093.902.505 4.853 5.729 8.781 11.609 9.588 14.355 28.948 41.4 29.349 40.999.177-.177 3.547-8.644 7.489-18.815 8.797-22.699 15.745-43.459 21.564-64.433l4.422-15.939v-92.629c0-102.968-.3-98.201 6.765-107.478 5.62-7.38 14.086-11.515 23.572-11.514 12.155.001 21.894 5.837 27.519 16.491l2.644 5.008.5 72.745.5 72.746 42.949-21.246 42.949-21.245 7.551.021c5.534.015 8.786.586 12.173 2.137 16.341 7.483 22.967 25.563 15.171 41.398-1.764 3.583-4.34 7.579-5.726 8.881-1.385 1.301-28.967 15.707-61.293 32.014l-58.774 29.648-5.626 18.739c-9.83 32.743-20.152 60.692-33.585 90.941-3.61 8.129-6.295 15.048-5.967 15.376.327.328 19.566 2.533 42.753 4.9l42.158 4.303 9.121-4.014c34.598-15.225 75.688-37.925 111.401-61.544 15.825-10.465 17.166-11.58 16.169-13.441-.597-1.117-.937-2.139-.755-2.271.182-.132 4.831-3.185 10.331-6.784 50.765-33.217 77.574-92.47 68.684-151.804-2.927-19.533-9.954-40.352-18.275-54.142l-4.008-6.642 4.656-7.198c9.193-14.211 14.432-27.905 17.467-45.656 4.438-25.959.883-49.805-11.01-73.862-21.42-43.327-64.887-70.488-113.014-70.618-24.637-.067-49.788 7.172-67.991 19.567l-5.49 3.74-9.51-4.995c-18.435-9.684-41.445-16.659-58.423-17.709-4.997-.309-10.661-.7-12.586-.868-1.925-.168-7.909.051-13.298.487m-663.868 1.397c-26.417 5.006-48.831 16.734-67.844 35.499-22.885 22.587-35.293 50.291-36.725 82.001-1.122 24.856 5.026 48.531 18.049 69.499 2.733 4.4 4.963 8.45 4.956 9-.007.55-1.616 3.625-3.575 6.832-7.188 11.765-14.82 33.435-17.844 50.668-2.033 11.586-1.745 39.407.532 51.5 3.767 19.998 11.936 40.086 23.272 57.227 4.5 6.803 7.726 10.102 18.643 19.064 28.849 23.682 60.963 46.294 94.702 66.683 30.921 18.686 82.755 45.307 90 46.223 3.029.382 72.9-6.2 73.527-6.928.128-.148-2.438-6.119-5.702-13.269-13.615-29.829-30.191-75.006-37.909-103.321l-2.269-8.321-58.725-29.414c-53.302-26.697-59.101-29.84-62.79-34.032-13.782-15.657-9.18-39.32 9.419-48.429 3.981-1.949 6.543-2.429 13.096-2.453l8.147-.03 41.649 20.75C943.35 895.663 962.507 905 963.015 905c.551 0 1.035-28.645 1.203-71.25l.282-71.25 2.229-4.83c3.659-7.927 7.828-12.357 14.734-15.652 18.015-8.598 38.558.96 43.363 20.175.856 3.421 1.174 29.697 1.176 97l.001 92.307 3.046 11.5c5.595 21.122 19.493 61.246 28.825 83.219l1.673 3.94 17.765-25.515c9.771-14.033 19.061-26.902 20.644-28.597 7.445-7.97 22.997-10.826 33.544-6.16 14.212 6.287 21.903 23.351 17.075 37.886-1.097 3.305-11.426 19.068-29.998 45.783l-28.325 40.743 8.155 14.101c4.484 7.755 11.515 19.334 15.623 25.73l7.47 11.631 13 2.097c36.635 5.909 69.533 8.744 113.484 9.778 24.813.584 29.016.476 29.016-.747 0-.787-2.439-9.971-5.42-20.41-7.388-25.874-7.939-29.202-7.321-44.24.974-23.692 8.397-41.188 27.678-65.239 23.833-29.727 35.2-53.096 42.319-87 1.93-9.194 2.203-13.548 2.19-35-.014-22.816-.204-25.41-2.764-37.735-6.292-30.296-18.762-57.23-37.109-80.153-7.904-9.875-26.874-27.716-37.602-35.365-27.439-19.563-62.888-31.682-98.142-33.551l-13.138-.696-2.273-8.5c-7.026-26.262-20.463-49.118-40.882-69.536-14.085-14.086-25.504-22.204-42.852-30.469-21.209-10.102-36.561-13.841-60.328-14.691-18.231-.652-30.42.519-44.439 4.271-12.255 3.28-27.785 9.458-37.027 14.73-7.574 4.32-7.62 4.332-9.937 2.456-7.788-6.306-26.193-14.636-40.683-18.412-12.433-3.24-39.046-4.196-51.436-1.848m537.218 450.259c-2.417 3.531-8.416 11.442-13.33 17.58-13.479 16.834-18.104 27.815-15.862 37.66 1.986 8.721 19.647 69.989 20.176 69.995.693.007 14.214-18.307 20.668-27.995 7.095-10.651 17.177-27.098 24.093-39.304l5.931-10.468-18.641-26.944-18.641-26.944-4.394 6.42m355.151 572.421c-6.203.956-9.832 2.676-14.748 6.993-9.24 8.113-11.618 23.746-5.45 35.836 2.851 5.588 12.601 12.652 18.779 13.605 10.605 1.636 18.234.3 25.183-4.41 10.144-6.875 14.257-16.603 12.219-28.902-2.721-16.421-17.566-25.96-35.983-23.122M698 1786v146h48v-292h-48v146m526-92.482v53.518l-7.25-5.53c-14.542-11.095-32.299-17.683-52.948-19.645-48.578-4.617-89.608 20.517-105.337 64.527-4.981 13.935-6.821 25.433-6.821 42.612 0 17.15 1.84 28.677 6.788 42.522 8.799 24.619 25.563 43.651 47.972 54.465 12.524 6.043 22.196 8.742 36.037 10.053 30.594 2.899 60.22-6.307 79.67-24.757l5.612-5.323.638 4.66c.352 2.562.639 8.421.639 13.02v8.36h42v-292h-47v53.518m731 .185v53.703l-3.75-3.6c-18.262-17.532-55.859-26.446-87.25-20.687-48.978 8.985-80.818 50.624-80.963 105.881-.143 54.371 32.255 96.881 80.351 105.429 19.177 3.408 35.713 2.769 52.461-2.03 15.766-4.517 26.948-10.687 38.131-21.041l6.02-5.573V1932h43v-292h-48v53.703m-1405.5 28.406c-10.052 1.448-23.504 5.713-33.377 10.582-7.534 3.715-10.985 6.215-17.553 12.717-12.708 12.579-17.034 22.854-16.881 40.092.291 32.729 27.435 54.404 76.311 60.938 34.032 4.549 45.885 8.71 50.595 17.762.773 1.486 1.405 5.319 1.405 8.518 0 7.106-2.878 11.954-9.347 15.745-7.296 4.276-13.376 5.672-27.194 6.244-25.395 1.051-52.402-5.889-70.309-18.068-2.943-2.001-5.643-3.638-6-3.637-.502.002-17.541 25.904-21.394 32.522-.511.877 2 3.061 8 6.956 11.217 7.284 22.771 12.793 35.736 17.04 18.085 5.924 25.506 6.967 49.008 6.884 20.075-.071 21.507-.208 32.52-3.112 29.542-7.791 48.581-24.098 54.623-46.787 1.766-6.629 1.69-21.466-.149-29.265-6.71-28.46-30.02-42.031-85.494-49.775-30.733-4.29-42.092-10.667-41.952-23.553.162-14.894 16.085-22.902 45.452-22.857 17.322.026 36.361 4.875 51.341 13.077 4.037 2.211 7.474 3.873 7.636 3.694 1.216-1.34 19.523-32.028 19.523-32.726 0-1.405-8.709-6.633-19.275-11.571-18.982-8.87-37.77-12.609-62.353-12.407-8.18.067-17.572.511-20.872.987m327.5-.147c-44.091 5.691-75.814 35.449-85.617 80.313-2.147 9.826-2.924 33.089-1.47 44.006 3.956 29.7 17.733 54.47 39.416 70.869 19.762 14.945 44.495 21.539 71.063 18.945 24.995-2.441 43.694-10.169 58.858-24.325l6.75-6.302V1932h43v-206h-43V1752.425l-4.75-4.595c-12.842-12.424-26.974-19.797-45.75-23.869-10.372-2.249-29.048-3.219-38.5-1.999m525 0c-44.091 5.691-75.814 35.449-85.617 80.313-2.147 9.826-2.924 33.089-1.47 44.006 3.956 29.7 17.733 54.47 39.416 70.869 19.762 14.945 44.495 21.539 71.063 18.945 24.995-2.441 43.694-10.169 58.858-24.325l6.75-6.302V1932h43v-206h-43V1752.425l-4.75-4.595c-12.842-12.424-26.974-19.797-45.75-23.869-10.372-2.249-29.048-3.219-38.5-1.999M1692 1829v103h48v-206h-48v103m-801-64.28c-18.742 2.139-35.124 11.901-44.769 26.675-11.166 17.104-13.273 44.872-4.952 65.277 6.796 16.663 21.483 29.606 38.971 34.344 10.04 2.72 25.988 2.959 35.25.529 20.33-5.336 35.243-19.149 42.152-39.045 2.549-7.341 2.781-9.236 2.813-23 .03-12.982-.28-16.009-2.304-22.5-2.947-9.45-6.942-16.505-13.263-23.421-9.409-10.295-20.253-15.866-35.398-18.186-8.876-1.36-11.614-1.46-18.5-.673m259.833.336c-25.008 3.44-45.156 22.098-50.354 46.629-1.922 9.071-1.868 25.659.112 34.618 4.644 21.007 19.219 37.204 39.664 44.078 16.978 5.708 41.141 3.001 55.317-6.198 20.808-13.503 31.142-38.199 27.485-65.683-2.891-21.724-14.562-38.589-33.298-48.114-9.339-4.748-26.286-7.069-38.926-5.33m265.167-.336c-18.742 2.139-35.124 11.901-44.769 26.675-11.166 17.104-13.273 44.872-4.952 65.277 6.796 16.663 21.483 29.606 38.971 34.344 10.04 2.72 25.988 2.959 35.25.529 20.33-5.336 35.243-19.149 42.152-39.045 2.549-7.341 2.781-9.236 2.813-23 .03-12.982-.28-16.009-2.304-22.5-2.947-9.45-6.942-16.505-13.263-23.421-9.409-10.295-20.253-15.866-35.398-18.186-8.876-1.36-11.614-1.46-18.5-.673m471-.058c-18.484 1.805-33.494 9.662-43.26 22.644-9.077 12.065-12.862 24.125-12.928 41.194-.052 13.16 1.842 22.108 6.805 32.165 11.289 22.87 35.732 35.345 63.173 32.242 21.509-2.433 38.07-13.73 47.233-32.221 5.164-10.422 6.897-18.254 6.942-31.387.05-14.688-2.154-24.058-8.243-35.044-6.169-11.13-18.511-21.519-31.054-26.14-4.658-1.716-22.483-4.561-24.668-3.938-.275.079-2.075.297-4 .485m-279.08 115.401c-6.387 1.008-11.814 4.014-16.583 9.187-5.038 5.466-6.791 10.352-6.725 18.75.09 11.496 5.164 19.665 15.666 25.222 6.072 3.213 19.29 3.23 25.777.033 6.25-3.08 10.799-7.758 13.724-14.112 2.14-4.649 2.406-6.395 2.011-13.212-.375-6.468-.974-8.694-3.394-12.608-6.334-10.246-17.84-15.252-30.476-13.26M486 2100.5v71.5h24v-55h73v-22h-73v-44h77v-22H486v71.5m427 0v71.5h24v-29.822c0-32.859.387-35.552 6.102-42.485 4.763-5.779 10.936-8.892 18.723-9.443 9.466-.67 14.784 1.019 19.876 6.315 6.836 7.108 7.299 9.969 7.299 45.117V2172h23v-32.79c0-26.233-.307-33.967-1.533-38.675-3.337-12.813-11.149-22.594-22.242-27.849-6.448-3.055-7.24-3.186-19.225-3.178-13.956.009-17.604 1.095-27.099 8.065L937 2081.17V2029h-24v71.5m179 0v71.5h107v-22h-83v-40h78v-20.977l-38.75-.261-38.75-.262-.272-18.75-.272-18.75H1198v-22h-106v71.5m638-45.589v25.911l-6.335-4.248c-19.026-12.758-49.935-9.311-64.662 7.212-9.344 10.484-13.482 22.513-13.319 38.714.188 18.601 7.963 34.425 21.288 43.322 8.141 5.436 14.392 7.324 26.223 7.919 8.059.405 10.928.117 17-1.708 8.43-2.533 14.341-5.723 18.721-10.103l3.084-3.084V2172h21v-143h-23v25.911m-889.5 14.091c-21.401 2.96-35.005 16.492-33.08 32.904.778 6.63 2.817 11.095 6.938 15.19 7.487 7.44 16 10.825 33.642 13.376 17.296 2.502 22 5.183 22 12.539 0 12.555-28.444 14.517-48.87 3.371-3.503-1.912-6.508-3.337-6.678-3.168-.169.17-2.612 3.838-5.428 8.152-6.001 9.192-6.517 8.146 7.476 15.165 12.075 6.058 20.664 7.774 36 7.194 13.812-.521 21.385-2.774 29.212-8.69 7.344-5.55 10.686-11.776 11.139-20.749.967-19.161-9.787-28.461-37.924-32.794-14.786-2.277-20.424-4.037-22.861-7.136-6.068-7.713.943-14.981 15.512-16.083 9.016-.682 17.585.913 26.63 4.958 3.76 1.681 7 2.88 7.199 2.663 1.984-2.159 9.301-15.557 8.874-16.249-1.044-1.689-16.75-8.344-22.281-9.441-8.069-1.6-20.644-2.15-27.5-1.202m-193.506.932c-6.968 2.12-14.029 7.005-18.087 12.513l-2.907 3.947V2071h-21v101h24v-28.885c0-34.329.434-36.618 8.466-44.649 8.841-8.84 18.312-9.722 33.534-3.121 1.119.486 2.744-1.677 6.402-8.52l4.902-9.171-2.805-2.236c-6.438-5.134-23.946-8.087-32.505-5.484m78.006.164c-16.569 3.236-31.883 18.116-36.517 35.483-2.081 7.8-2.071 24.076.02 31.915 7.072 26.511 34.019 41.599 64.497 36.111 9.55-1.719 22.11-7.477 28.207-12.93l3.708-3.315-6.906-6.853-6.906-6.853-3.97 2.752c-6.396 4.432-15.381 6.866-25.703 6.962-8.45.079-9.541-.153-15.962-3.393-7.811-3.941-11.894-8.42-13.972-15.326l-1.4-4.651H791l-.015-8.75c-.027-16.258-4.62-28.854-13.976-38.33-6.049-6.127-15.101-10.999-23.808-12.815-6.14-1.28-21.661-1.284-28.201-.007m640.253-.041c-7.848 1.548-17.403 6.92-23.762 13.358-10.593 10.726-14.631 21.253-14.609 38.085.021 15.772 3.781 26.457 12.866 36.563 15.546 17.295 45.123 21.856 68.717 10.598 6.469-3.087 16.035-10.002 16.035-11.591 0-.369-3.043-3.518-6.763-6.997l-6.763-6.327-3.737 2.581c-15.353 10.602-41.347 9.17-50.938-2.806-1.539-1.922-3.547-5.638-4.461-8.258l-1.662-4.763 40.412-.261 40.412-.261v-9.279c0-15.565-4.172-27.349-13.165-37.19-5.724-6.262-16.042-11.901-24.721-13.51-6.321-1.172-21.789-1.14-27.861.058m123.247 1.805c-3.47 1.655-8.214 5.125-11.25 8.231l-5.25 5.37V2071h-21v101h24v-28.184c0-32.202.711-36.782 6.815-43.913 8.376-9.786 19.933-11.271 35.228-4.528 1.172.516 2.614-1.309 6-7.598 2.451-4.552 4.593-8.792 4.76-9.421.429-1.62-4.321-4.71-11.091-7.215-8.928-3.303-20.385-3.011-28.212.721m321.5-1.431c-16.773 4.668-29.095 17.344-34.091 35.069-.846 3.002-1.403 9.596-1.395 16.5.012 9.363.441 12.743 2.312 18.19 4.623 13.462 12.929 23.234 24.31 28.6 18.781 8.854 41.921 6.187 55.9-6.441l3.964-3.582V2172h21v-101h-21v13.067l-3.533-3.534c-4.116-4.116-11.866-8.272-18.967-10.172-6.182-1.653-22.45-1.614-28.5.07m-596.032 9.819c2.13 5.088 11.74 27.7 21.356 50.25l17.484 41 12.46.279 12.461.279 2.037-4.779c15.092-35.394 40.234-95.167 40.234-95.651 0-.345-5.52-.628-12.268-.628h-12.267l-6.383 15.75c-4.995 12.327-16.288 41.112-23.007 58.645-.534 1.392-2.114-1.79-5.959-12-2.877-7.642-9.593-24.806-14.924-38.141l-9.692-24.246-12.702-.004-12.701-.004 3.871 9.25m317.352-8.53c.261.429 9.294 22.995 20.072 50.147l19.598 49.366-9.588 22.043c-5.273 12.124-9.824 22.661-10.114 23.415-.432 1.125 1.753 1.32 12.216 1.09l12.742-.281 31.377-72.957c17.257-40.126 31.377-73.088 31.377-73.25 0-.161-5.57-.293-12.377-.293h-12.377l-10.07 24.318c-5.538 13.374-12.231 29.797-14.873 36.494-2.642 6.697-5.051 12.179-5.353 12.182-.303.003-2.751-6.181-5.441-13.744-2.69-7.562-8.789-23.875-13.555-36.25l-8.665-22.5-12.723-.28c-6.997-.155-12.508.07-12.246.5m367.68-.039c0 .375 8.833 22.923 19.63 50.107l19.629 49.427-8.751 20.142a11909.453 11909.453 0 00-10.143 23.393l-1.392 3.25 12.764-.028 12.763-.027 30.725-71.723c16.899-39.447 31.009-72.509 31.357-73.472.58-1.607-.381-1.749-11.725-1.744l-12.357.007-11.688 28.243c-6.428 15.534-13.142 31.971-14.919 36.525-1.777 4.555-3.553 7.93-3.947 7.5-.394-.429-2.575-5.956-4.847-12.281-2.271-6.325-8.285-22.41-13.364-35.744l-9.235-24.243-12.25-.007c-6.737-.003-12.25.3-12.25.675M728.022 2090.89c-6.663 2.38-13.947 9.617-15.969 15.865-.757 2.34-1.147 4.485-.866 4.766.281.28 13.339.391 29.017.245l28.506-.266-1.321-4.531c-1.74-5.965-7.185-12.182-13.112-14.971-6.854-3.224-18.905-3.733-26.255-1.108m642.696-.862c-5.675 1.432-8.99 3.424-12.902 7.754-3.35 3.708-7.67 12.697-6.611 13.756.271.271 13.321.374 28.999.228l28.506-.266-1.321-4.531c-1.738-5.957-7.184-12.182-13.084-14.956-5.397-2.537-17.399-3.547-23.587-1.985m317.98 1.416c-12.522 4.467-19.698 15.213-19.698 29.5 0 8.894 2.158 15.712 6.624 20.929 4.9 5.726 9.773 8.652 16.849 10.121 22.738 4.721 40.64-13.298 36.549-36.786-.622-3.577-1.988-8.182-3.035-10.234-2.59-5.076-10.113-11.488-15.721-13.399-5.614-1.913-16.389-1.978-21.568-.131m128.802-.174c-7.995 3.29-13.745 8.189-16.849 14.354-4.415 8.773-3.967 23.35 1 32.476 10.126 18.604 39.168 19.757 51.125 2.029 4.119-6.106 5.579-12.485 5.016-21.911-.705-11.817-5.34-19.475-14.959-24.716-4.503-2.453-6.656-2.949-13.833-3.185-5.106-.169-9.698.212-11.5.953" fill="#1976D2" fill-rule="evenodd"/><path fill-opacity=".124" d="M1218.5 240.585c-21.242 1.05-42.843 2.747-57 4.478C1047.718 258.978 939.58 302.9 848 372.396c-46.464 35.26-92.037 80.837-126.153 126.166-77.095 102.429-121.165 219.363-130.333 345.817-2.912 40.165-1.535 91.229 3.535 131.121 14.167 111.45 58.262 218.776 127.292 309.822 18.445 24.328 34.971 43.117 59.098 67.19 40.072 39.984 80.278 71.27 128.061 99.652 100.901 59.933 213.692 90.839 331.5 90.835 155.26-.006 300.239-53.162 421-154.356 19.938-16.707 60.935-57.774 77.384-77.516 82.925-99.525 133.626-216.143 148.526-341.627 3.454-29.09 4.332-44.91 4.325-78-.01-42.606-2.524-72.809-9.368-112.5-11.104-64.399-33.875-131.135-64.598-189.313-32.047-60.686-68.542-110.024-117.749-159.187-47.872-47.83-96.085-83.381-157.02-115.785-76.65-40.759-167.424-66.776-253.5-72.654-16.73-1.142-60.121-2.038-71.5-1.476m-3.5 54.412c-88.158 3.827-171.418 26.24-250.5 67.431-68.307 35.579-126.218 82.04-180.201 144.572-32.664 37.838-65.072 89.196-87.081 138-28.328 62.819-45.901 130.121-51.435 197-2.657 32.1-.985 106.76 2.815 125.741.49 2.447 5.335 8.065 19.775 22.927 96.205 99.012 210.505 171.262 335.627 212.151 60.429 19.748 110.31 29.776 181 36.385 21.337 1.995 99.838 1.678 123-.496 84.066-7.893 157.499-25.777 232-56.502 81.074-33.436 160.783-83.474 229.429-144.025 18.398-16.228 47.534-44.106 56.098-53.675 7.981-8.917 7.568-7.322 10.492-40.506 2.501-28.386 2.704-72.47.461-100.241-7.397-91.592-34.615-176.886-82.255-257.759-48.56-82.435-123.736-157.805-206.225-206.76-102.001-60.534-215.824-89.33-333-84.243m12.5 66.946c-10.085 1.176-22.772 3.898-31.46 6.75-9.98 3.277-30.302 13.052-37.995 18.276-14.51 9.854-31.159 25.934-40.167 38.795-1.479 2.112-1.591 2.12-7.44.503-9.511-2.629-29.769-2.36-40.371.537-28.918 7.902-52.239 27.364-66.118 55.178L999.948 490l-11.224.004c-42.225.015-85.937 21.406-112.942 55.269-3.866 4.848-6.86 8.922-6.655 9.054.205.133 5.546 1.285 11.868 2.562s16.378 4.042 22.347 6.144l10.852 3.823 13.153-4.383c33.602-11.197 68.68-13.868 104.153-7.931 53.742 8.996 104.801 40.165 137.503 83.939 8.847 11.843 17.305 25.61 21.322 34.708 2.73 6.184 2.177 5.873 15.675 8.824 9.238 2.019 22.266 5.879 30.353 8.994l7.683 2.958 7.732-3.102c10.029-4.023 19.24-6.684 32.232-9.311l10.5-2.124 5.667-10.683c12.058-22.733 23.953-38.724 41.482-55.769 32.324-31.432 71.134-51.248 114.351-58.387 36.248-5.988 70.775-3.374 104.562 7.914l13.259 4.43 5.936-2.412c6.785-2.757 26.437-8.084 33.493-9.079 2.612-.368 4.75-1.041 4.75-1.496 0-1.726-12.311-16.03-20.11-23.367-16.765-15.772-37.389-27.8-59.39-34.638-11.819-3.674-21.23-5.161-36-5.691l-15-.537-4.681-9.607c-13.686-28.084-41.836-49.181-73.658-55.202-7.465-1.412-25.059-.622-32.823 1.475l-5.162 1.394-3.027-4.137c-9.876-13.494-24.879-27.644-39.649-37.391-15.221-10.045-38.312-19.182-57.371-22.703-10.05-1.856-33.915-2.731-43.629-1.599m-405 253.504c-26.768 3.673-50.573 15.274-70.795 34.503-24.335 23.14-37.856 54.336-37.945 87.55-.067 24.864 5.724 45.169 18.922 66.343l4.591 7.367-2.206 3.645c-7.344 12.137-15.892 34.5-18.604 48.674-6.601 34.502-1.739 68.82 14.093 99.475 8.058 15.602 13.862 22.907 25.964 32.685 53.605 43.304 114.578 81.63 172.167 108.218l13.186 6.088 36.314-3.683c19.972-2.026 36.438-3.762 36.59-3.858.153-.097-2.274-5.751-5.392-12.565-13.09-28.602-29.331-72.859-38.405-104.652l-2.073-7.264-57.921-28.989c-31.857-15.944-59.502-30.376-61.433-32.072-1.932-1.696-4.984-6.074-6.782-9.729-6.357-12.915-3.597-26.76 7.285-36.544 6.118-5.5 12.141-7.639 21.513-7.639h7.213l42.359 21.082 42.359 21.082.5-72.332.5-72.332 2.661-5.04c10.293-19.5 34.536-23.161 49.925-7.541 10.064 10.216 9.294 1.472 9.924 112.581l.551 97 2.302 7.5c8.49 27.66 11.209 35.794 18.335 54.866 4.39 11.752 8.737 23.143 9.66 25.315l1.677 3.948 16.897-24.314c9.293-13.373 18.511-26.041 20.483-28.151 8.316-8.898 21.911-12.003 33.466-7.642 16.91 6.382 24.781 25.129 17.546 41.794-1.03 2.374-14.26 22.035-29.4 43.691-15.14 21.655-27.527 39.576-27.527 39.823 0 1.271 27.931 47.363 30.662 50.598.517.613 20.293 3.773 37.838 6.046 28.462 3.687 50.112 5.17 83.773 5.738 28.581.482 33.698.356 33.291-.821-.967-2.791-10.361-36.531-11.508-41.33-4.347-18.194-.988-41.779 8.696-61.061 5.02-9.993 9.383-16.554 18.494-27.804 24.168-29.843 37.93-60.06 42.942-94.287 2.062-14.084 1.503-44.361-1.086-58.854-10.558-59.088-45.476-106.886-97.545-133.526-26.096-13.351-52.219-20.029-78.355-20.029h-11.042l-1.576-6.928c-5.044-22.179-18.571-47.605-35.269-66.294-36.647-41.017-94.462-59.916-147.268-48.141-13.299 2.966-31.091 9.594-42.623 15.878l-8.076 4.4-5.359-3.608c-2.947-1.985-9.438-5.531-14.424-7.882-22.819-10.755-45.633-14.33-70.065-10.978m648.5-.016c-24.814 3.956-44.051 11.408-64.239 24.885-31.136 20.786-53.473 52.727-64.196 91.796l-1.541 5.613-4.652.637c-2.558.351-6.951.67-9.762.708-9.539.131-9.539.559.002 9.945 37.871 37.259 61.201 83.494 69.981 138.687 2.181 13.711 2.972 46.462 1.461 60.493-1.253 11.63-4.941 32.098-7.53 41.787l-1.466 5.483 2.817 3.017c1.548 1.66 6.624 8.643 11.28 15.518 12.311 18.182 24.253 34.916 24.95 34.961.333.021 1.756-2.998 3.163-6.711 13-34.304 15.881-42.225 19.006-52.25 1.972-6.325 5.192-17.235 7.155-24.245L1461 953.01l.006-90.755c.003-53.464.402-93.173.969-96.64 4.099-25.027 31.115-35.384 51.07-19.58 2.409 1.908 5.133 5.613 7.17 9.749l3.285 6.671.282 71.273c.155 39.199.481 71.272.724 71.272.244 0 19.158-9.337 42.032-20.75l41.59-20.75h9.186c8.578 0 9.565.219 14.913 3.31 3.149 1.821 7.096 4.971 8.77 7 10.237 12.411 8.9 31.823-2.929 42.509-2.75 2.485-22.905 13.095-61.615 32.437l-57.528 28.744-2.51 8.5c-11.195 37.91-22.692 69.571-36.822 101.405-3.639 8.198-6.498 15.018-6.355 15.155.794.758 81.85 8.537 84.855 8.143 5.161-.676 40.493-17.598 63.961-30.634 23.139-12.853 42.154-24.385 59.946-36.357 10.994-7.397 12.5-8.746 12.5-11.195 0-2.356 1.001-3.393 6.5-6.733 34.924-21.213 62.172-59.902 70.388-99.943 3.903-19.023 3.969-42.346.176-62.17-2.766-14.459-11.442-37.079-18.697-48.749l-2.224-3.578 4.634-7.433c8.137-13.056 14.361-28.264 16.742-40.911 6.276-33.328.025-64.63-18.579-93.028-10.729-16.377-30.689-33.666-49.94-43.258-27.369-13.635-62.653-16.376-92-7.146-9.004 2.832-28.467 12.151-32.95 15.777l-2.949 2.385-10.051-5.272c-12.592-6.605-26.96-11.96-40.542-15.108-13.273-3.077-40.644-4.05-54.008-1.919m-115.064 449.859c-1.89 2.798-7.892 10.74-13.338 17.649-11.534 14.63-15.627 22.494-16.324 31.365-.442 5.612.434 9.402 9.29 40.196 5.378 18.7 10.102 34.378 10.497 34.84.883 1.032 14.494-17.658 25.897-35.561 8.242-12.941 24.042-39.546 24.042-40.486 0-.456-31.728-46.641-34.995-50.941-1.621-2.134-1.657-2.113-5.069 2.938m350.422 573.801c-5.726 1.659-12.494 7.188-15.661 12.793-3.935 6.966-4.885 17.718-2.188 24.779 2.179 5.705 7.371 11.596 13.263 15.049 5.824 3.414 16.429 4.244 24.443 1.914 6.807-1.979 14.667-8.686 17.826-15.21 1.893-3.911 2.139-5.774 1.772-13.438-.396-8.295-.673-9.256-4.094-14.188-4.234-6.105-8.598-9.348-15.297-11.364-5.243-1.577-15.202-1.744-20.064-.335M699 1786v146h46v-292h-46v146m525-92.5c0 29.425-.38 53.5-.845 53.5-.465 0-1.702-.955-2.75-2.122-5.962-6.639-22.894-15.439-37.405-19.439-11.753-3.239-36.268-4.477-48.761-2.461-20.129 3.247-39.15 13.058-52.983 27.328-12.664 13.065-20.662 27.687-26.047 47.62-2.384 8.825-2.591 11.218-2.64 30.574-.048 18.499.21 22.037 2.16 29.707 4.988 19.623 13.269 35.453 25.11 48.006 11.762 12.468 27.261 21.627 44.964 26.571 9.001 2.514 11.025 2.703 28.197 2.641 16.787-.061 19.426-.315 28.5-2.747 16.738-4.485 29.821-11.525 41.48-22.32l6.02-5.573V1932h42v-292h-47v53.5m732 .577v54.078l-5.25-4.391c-12.732-10.646-26.713-16.919-45.25-20.302-10.29-1.877-31.835-1.881-41.5-.008-41.531 8.052-70.022 37.765-78.672 82.046-2.085 10.671-2.097 35.198-.023 46.5 4.283 23.345 13.309 40.869 29.102 56.5 20.248 20.041 43.464 28.417 75.427 27.215 16.915-.637 27.989-3.193 41.733-9.633 10.629-4.981 16.272-8.903 23.559-16.373l5.874-6.022V1932h41v-292h-46v54.077m-1399 27.562l-10 1.469c-20.09 2.95-41.081 13.225-51.728 25.32-4.873 5.536-10.069 15.13-11.882 21.94-1.6 6.01-1.777 20.242-.329 26.52 3.671 15.928 15.659 29.23 34.439 38.216 11.663 5.581 23.06 8.5 46.362 11.876 22.494 3.259 29.13 4.857 36.346 8.751 14.966 8.077 13.579 27.075-2.526 34.614-7.697 3.603-14.698 4.736-29.168 4.722-24.748-.026-49.633-7.144-67.253-19.239l-4.24-2.909-6.506 10.058C479.912 1899.369 476 1905.676 476 1906.38c0 1.041 15.733 10.995 23.642 14.958 9.804 4.912 28.83 11.1 40.858 13.287 14.559 2.647 41.22 2.363 55.5-.592 32.213-6.665 54.435-24.955 59.484-48.959 4.039-19.197-.44-37.4-12.381-50.32-12.185-13.183-33.387-21.347-68.103-26.222-36.819-5.17-47.044-10.474-47.153-24.46-.063-8.195 4.404-14.023 14.153-18.465 7.267-3.31 16.623-4.697 31.559-4.678 18.559.023 33.091 3.626 49.972 12.39l8.585 4.457 2.258-3.638c11.211-18.066 16.655-27.051 17.11-28.236.305-.794-.446-2.029-1.722-2.835-18.12-11.443-35.562-17.674-57.74-20.627-9.568-1.274-28.802-1.714-35.022-.801m308.291 2.864c-35.733 8.27-62.604 34.974-71.921 71.471-8.689 34.038-3.523 70.746 13.619 96.765 13.362 20.283 32.325 33.974 56.011 40.441 7.488 2.044 10.703 2.317 27 2.292 15.728-.023 19.82-.359 27.307-2.244 17.79-4.479 31.386-11.7 42.443-22.542l6.25-6.128.007 6.971c.004 3.834.294 10.008.645 13.721l.637 6.75H1008v-206h-40.711l-.637 6.75c-.351 3.713-.641 9.867-.645 13.677l-.007 6.926-5.486-5.619c-11.684-11.967-28.558-20.389-48.387-24.15-12.918-2.451-34.071-2.036-46.836.919m525 0c-35.733 8.27-62.604 34.974-71.921 71.471-8.689 34.038-3.523 70.746 13.619 96.765 13.362 20.283 32.325 33.974 56.011 40.441 7.488 2.044 10.703 2.317 27 2.292 15.728-.023 19.82-.359 27.307-2.244 17.79-4.479 31.386-11.7 42.443-22.542l6.25-6.128.007 6.971c.004 3.834.294 10.008.645 13.721l.637 6.75H1533v-206h-40.711l-.637 6.75c-.351 3.713-.641 9.867-.645 13.677l-.007 6.926-5.486-5.619c-11.684-11.967-28.558-20.389-48.387-24.15-12.918-2.451-34.071-2.036-46.836.919M1693 1829v103h46v-206h-46v103m-809.5-63.428c-14.2 2.807-28.87 12.745-37.086 25.124-2.087 3.143-5.165 9.561-6.841 14.26-2.901 8.134-3.047 9.288-3.035 24.044.012 14.291.226 16.107 2.74 23.278 6.898 19.676 20.439 32.92 39.722 38.851 6.193 1.905 9.678 2.298 20 2.254 10.743-.045 13.635-.426 20.578-2.707 20.063-6.593 34.573-22.421 40.04-43.676 2.294-8.919 2.239-27.211-.11-36.5-8.467-33.483-39.904-52.066-76.008-44.928m263-.005c-15.477 3.048-30.602 13.59-38.722 26.989-11.676 19.266-12.657 46.925-2.428 68.444 4.592 9.661 17.064 21.948 26.782 26.386 10.861 4.959 16.761 6.127 30.368 6.014 10.21-.086 13.193-.502 20-2.792 25.835-8.69 41.5-31.945 41.5-61.608 0-38.41-26.33-65.392-63.338-64.906-3.939.052-10.312.714-14.162 1.473m262 .005c-14.2 2.807-28.87 12.745-37.086 25.124-2.087 3.143-5.165 9.561-6.841 14.26-2.901 8.134-3.047 9.288-3.035 24.044.012 14.291.226 16.107 2.74 23.278 6.898 19.676 20.439 32.92 39.722 38.851 6.193 1.905 9.678 2.298 20 2.254 10.743-.045 13.635-.426 20.578-2.707 20.063-6.593 34.573-22.421 40.04-43.676 2.294-8.919 2.239-27.211-.11-36.5-8.467-33.483-39.904-52.066-76.008-44.928m469.956-.112c-12.455 2.263-25.515 10.051-33.866 20.195-13.979 16.98-18.312 43.428-10.951 66.845 3.688 11.731 14.131 25.201 24.794 31.98 19.747 12.554 50.749 12.315 69.567-.537 20.353-13.902 30.06-36.931 26.99-64.034-1.227-10.827-3.688-18.58-8.509-26.806-12.992-22.168-39.305-32.86-68.025-27.643m-275.85 116.049c-6.128 2.338-12.191 7.944-15.163 14.017-2.426 4.959-2.649 6.327-2.256 13.816.465 8.862 2.019 12.591 7.548 18.12 5.337 5.337 11.332 7.538 20.535 7.538 6.964 0 9.193-.426 13.531-2.588 20.246-10.089 20.148-39.138-.167-49.623-5.354-2.764-18.329-3.455-24.028-1.28M486 2100v71h22.968l.266-27.25.266-27.25 36.75-.262 36.75-.263V2095h-74v-44h78v-22H486v71m428 0v71h22l.012-27.75c.015-34.421.666-37.723 9.1-46.126 9.938-9.902 27.523-10.489 36.785-1.227 6.923 6.923 7.399 9.609 7.865 44.353l.412 30.75H1012l-.008-29.75c-.004-16.363-.474-32.675-1.044-36.25-2.163-13.568-9.901-25.031-20.826-30.854-15.054-8.024-37.21-5.91-49.3 4.705-1.972 1.732-3.864 3.149-4.204 3.149-.34 0-.618-11.925-.618-26.5V2029h-22v71m179 0v71h106v-21h-83v-40h78v-21h-78v-39h81v-21h-104v71m637-44.396v26.603l-3.513-3.085c-4.831-4.241-8.347-5.912-17.205-8.178-17.729-4.534-35.336-.502-47.55 10.89-10.053 9.376-14.697 20.248-15.448 36.166-.6 12.731 1.119 21.168 6.336 31.095 8.506 16.189 26.654 25.92 45.611 24.458 12.706-.98 25.416-6.086 31.279-12.564 2.846-3.145 3.49-2.405 3.49 4.011v6h20v-142h-23v26.604m-1081.254 14.482c-6.655 1.568-13.407 5.704-18.133 11.106l-4.613 5.274V2071h-20v100H627.865l.357-29.25c.411-33.57.804-35.51 8.889-43.845 7.403-7.631 19.571-9.528 29.779-4.643l5.17 2.475 4.901-9.059c4.485-8.288 4.759-9.169 3.22-10.369-3.299-2.572-10.522-5.32-16.553-6.299-7.11-1.154-9.72-1.141-14.882.076m80.205-.091c-27.232 4.333-43.642 26.378-41.644 55.945 1.931 28.585 20.342 46.252 49.79 47.779 16.998.882 32.985-3.946 43.447-13.12l3.956-3.468-6.614-6.67-6.614-6.671-4.292 3.109c-6.896 4.996-16.736 7.441-27.48 6.828-10.723-.612-15.05-2.291-21.534-8.355-4.197-3.926-7.966-10.81-7.966-14.55 0-.452 17.98-.822 39.955-.822h39.954l.66-3.518c.732-3.903-.153-14.553-1.786-21.482-2.639-11.2-11.245-23.256-20.452-28.652-9.729-5.701-26.487-8.405-39.38-6.353m106.3.464c-11.458 2.594-21.542 9.768-25.361 18.041-2.122 4.598-2.498 14.387-.752 19.601 3.82 11.409 15.891 18.472 36.694 21.47 13.965 2.012 19.522 3.872 22.638 7.576 2.89 3.434 3.146 5.761 1.074 9.768-2.291 4.43-7.713 6.491-18.178 6.907-10.591.421-21.281-2.008-30.294-6.885-2.985-1.615-5.765-2.937-6.179-2.937-.413 0-2.886 3.426-5.497 7.614l-4.745 7.614 2.424 1.839c7.361 5.581 21.209 10.593 33.597 12.159 17.021 2.151 33.144-1.659 42.458-10.033 7.169-6.446 9.264-11.01 9.268-20.193.008-18.102-10.873-27.218-36.92-30.931-17.979-2.564-22.903-4.448-25.05-9.588-1.642-3.93-.856-6.866 2.716-10.142 7.036-6.452 28.971-5.875 42.786 1.126l4.897 2.481 4.679-7.508c3.495-5.607 4.408-7.836 3.608-8.801-1.632-1.967-11.25-6.425-17.785-8.244-8.029-2.235-28.041-2.753-36.078-.934m531.042.049c-17.949 3.901-31.595 16.253-37 33.492-2.715 8.66-2.456 27.563.494 36.109 5.745 16.638 18.172 27.916 35.673 32.373 7.612 1.939 23.171 1.929 31.437-.019 7.505-1.77 18.403-7.261 23.794-11.99l3.809-3.342-6.614-6.67-6.614-6.671-4.208 3.049c-6.89 4.991-13.175 6.661-25.064 6.661-9.251 0-11.154-.311-16-2.613-7.021-3.335-12.464-8.865-14.444-14.675-.856-2.513-1.556-4.938-1.556-5.39 0-.452 18.225-.822 40.5-.822h40.5l-.035-6.75c-.048-9.277-2.236-20.621-5.31-27.531-3.309-7.437-12.485-17.092-19.721-20.749-10.79-5.453-26.791-7.255-39.641-4.462m128.145-.57c-5.616 1.344-13.625 6.453-18.055 11.518l-4.383 5.01V2071h-20v100h21.887l.365-28.75c.393-31.075.664-32.915 6.025-40.914 6.938-10.353 21.597-13.565 33.97-7.444l3.764 1.863 5.082-9.015c5.546-9.839 5.629-9.117-1.474-12.866-8.423-4.446-18.784-5.946-27.181-3.936m317.287.628c-13.839 3.353-24.783 11.616-30.492 23.023-4.022 8.036-5.201 11.994-6.134 20.586-2.843 26.184 9.574 48.798 30.934 56.337 7.696 2.717 18.339 3.737 26.298 2.523 8.789-1.341 20.071-6.503 25.012-11.444l3.657-3.658V2171h20v-100h-20v13.233l-3.964-3.582c-10.922-9.867-29.315-13.961-45.311-10.085m-600.297 2.184c.309.963 9.752 23.35 20.985 49.75l20.423 48 12.416.279 12.417.278 20.811-49.278c11.446-27.104 21.006-49.631 21.244-50.06.238-.43-5.032-.655-11.712-.5l-12.145.281-6.751 16.5c-3.714 9.075-10.514 26.313-15.112 38.308-5.769 15.048-8.618 21.347-9.192 20.32-.458-.818-4.381-10.856-8.719-22.308-4.337-11.451-9.553-24.87-11.591-29.82-2.037-4.95-5.051-12.262-6.696-16.25l-2.993-7.25h-11.974c-10.951 0-11.926.149-11.411 1.75m320.572-1.334c0 .229 8.808 22.603 19.574 49.72 11.298 28.456 19.383 50.163 19.121 51.334-.25 1.117-4.749 11.817-9.999 23.78l-9.545 21.75h24.444l4.141-9.75c2.278-5.363 16.489-38.451 31.581-73.53l27.44-63.78-12.108.28-12.108.28-9.766 23.5c-5.371 12.925-12.13 29.459-15.02 36.742-2.89 7.283-5.531 13.246-5.868 13.25-.337.004-2.082-4.154-3.877-9.242-1.796-5.088-8.002-21.738-13.792-37L1555.69 2071h-11.845c-6.515 0-11.845.187-11.845.416m368.487 3.303c.822 2.08 9.771 24.64 19.887 50.135l18.391 46.353-9.882 22.817c-5.436 12.549-9.883 23.078-9.883 23.396 0 .319 5.328.58 11.839.58h11.84l1.268-2.75c.948-2.054 51.393-119.254 60.703-141.031l1.403-3.281-12.091.281-12.09.281-6.483 15.5c-3.565 8.525-10.342 25.063-15.058 36.75-4.716 11.688-8.858 21.248-9.203 21.245-.345-.003-2.34-4.908-4.432-10.9-2.092-5.991-8.245-22.526-13.674-36.744l-9.872-25.851-12.079-.281-12.079-.281 1.495 3.781m-1167.764 14.3c-6.042 1.041-12.699 4.915-16.621 9.674-3.153 3.825-6.473 11.897-5.525 13.432.298.481 13.354.875 29.013.875 22.378 0 28.579-.277 28.97-1.295.722-1.882-2.202-9.547-5.085-13.326-5.257-6.893-19.648-11.273-30.752-9.36m641.582.091c-6.95.881-13.591 4.237-17.552 8.87-3.374 3.946-7.15 12.569-6.186 14.128.303.491 13.364.892 29.023.892 22.378 0 28.579-.277 28.97-1.295.709-1.848-2.182-9.52-4.959-13.162-5.193-6.807-17.852-10.884-29.296-9.433m318.039.878c-9.505 2.003-17.078 8.08-21.18 16.995-2.001 4.346-2.538 7.145-2.594 13.5-.118 13.495 5.462 23.86 15.771 29.295 4.617 2.435 6.209 2.721 15.159 2.721 8.35.001 10.66-.356 14-2.161 5.507-2.976 10.177-7.806 13.335-13.791 2.374-4.498 2.664-6.142 2.664-15.118.001-9.233-.25-10.561-3.017-15.971-6.133-11.993-20.261-18.395-34.138-15.47m127.665.175c-10.259 2.398-19.573 11.684-22.042 21.974-1.725 7.192-.8 18.336 1.981 23.863 2.864 5.692 8.396 11.544 13.552 14.335 3.343 1.809 5.643 2.165 14 2.164 8.983 0 10.532-.281 15.233-2.758 6.097-3.213 12.624-10.892 14.495-17.053.699-2.304 1.231-7.815 1.182-12.249-.149-13.336-5.946-22.937-16.91-28.005-5.938-2.745-15.252-3.729-21.491-2.271" fill="#1976D2" fill-rule="evenodd"/><path fill-opacity=".284" d="M1227 240.67c-78.799 2.045-154.769 17.299-224.5 45.078C855.531 344.297 735.986 452.191 663.175 592c-40.624 78.005-64.264 161.008-71.345 250.5-1.623 20.511-1.622 77.146.001 98.5 11.777 154.939 78.498 300.074 188.648 410.353 47.599 47.655 100.754 86.773 159.585 117.446 80.33 41.88 161.236 64.976 253.436 72.346 19.851 1.587 77.146 1.583 96-.007 81.904-6.907 150.903-24.732 222.5-57.481 96.737-44.248 184.599-114.778 248.121-199.175 69.902-92.873 113.384-199.614 127.293-312.482 6.373-51.718 6.203-110.425-.474-163.5-5.405-42.961-13.379-77.695-28.125-122.5-40.4-122.759-119.608-233.368-223.815-312.545-92.893-70.581-202.462-115.015-316.5-128.354-26.203-3.064-67.358-5.058-91.5-4.431m-11.5 53.904c-61.581 3.592-105.843 11.549-158 28.405-103.649 33.497-193.953 93.245-267.204 176.789C706.847 594.942 656.023 715.428 645.512 843c-2.303 27.944-2.111 73.078.434 102.251 1.091 12.513 2.519 23.763 3.172 25 1.966 3.721 45.204 46.871 62.913 62.784 114.599 102.975 251.033 170.627 396.025 196.373 49.521 8.793 84.04 11.783 135.944 11.775 62.461-.009 110.944-5.416 173.5-19.352 61.423-13.683 133.806-40.795 190.77-71.454 48.731-26.229 92.517-55.192 134.23-88.788 17.994-14.492 53.634-46.984 72.089-65.723l18.09-18.366 1.16-8.5c4.663-34.162 5.893-92.268 2.72-128.5-4.149-47.386-12.91-90.454-27.257-134-34.606-105.032-93.576-193.483-178.28-267.409-92.599-80.817-212.814-131.852-336.022-142.654-15.85-1.389-67.047-2.589-79.5-1.863M1477 615.053c-64.091 6.991-116.672 52.293-133.415 114.947l-2.272 8.5-4.906.238c-2.699.131-7.73.505-11.181.832l-6.273.594 9.681 10.168c35.631 37.421 56.374 76.637 65.942 124.665 3.484 17.486 4.519 28.728 4.556 49.503.041 22.532-2.521 43.036-8.013 64.127l-1.856 7.127 2.98 2.813c1.639 1.547 4.147 4.64 5.573 6.873 5.528 8.657 29.482 42.56 30.071 42.56.641 0 2.757-5.143 11.315-27.5 5.879-15.358 9.134-25.056 16.115-48l5.172-17 .505-96.5.506-96.5 2.681-5.72c9.552-20.381 34.746-25.071 50.428-9.389 3.495 3.495 5.786 6.938 7.25 10.897 2.113 5.711 2.141 6.711 2.141 76.252v70.465l40.043-20.026c22.023-11.015 42.475-20.66 45.447-21.434 6.04-1.574 14.437-.856 20.723 1.771 8.314 3.473 16.117 13.552 17.856 23.062 1.697 9.279-2.848 22.587-9.798 28.689-1.834 1.611-29.39 15.969-61.235 31.907l-57.9 28.978-2.602 8.774c-11.312 38.156-23.168 70.824-36.43 100.38-3.357 7.483-6.104 14.02-6.104 14.529 0 .508 19.013 2.855 42.25 5.216l42.25 4.292 13-5.935c35.958-16.416 71.093-35.956 104.486-58.108 9.617-6.38 17.876-11.88 18.353-12.223.477-.342.368-1.556-.243-2.698-1.007-1.882-.539-2.41 5.045-5.682 30.751-18.023 56.538-50.242 67.226-83.997 5.812-18.355 7.636-30.067 7.627-48.974-.013-25.932-7.067-53.193-19.326-74.683l-4.367-7.657 4.008-6.305c5.502-8.653 9.913-17.804 13.438-27.881 4.693-13.413 5.756-20.743 5.726-39.5-.024-15.029-.335-18.224-2.684-27.554-12.956-51.478-57.36-89.705-110.301-94.955-27.941-2.771-56.523 4.215-79.88 19.525l-5.108 3.349-12.729-6.328c-13.692-6.806-30.478-12.646-43.183-15.022-10.198-1.908-31.723-2.647-42.588-1.462m229.332 1024.733c-9.365 3.354-15.366 9.353-17.952 17.945-4.193 13.935 1.639 27.694 14.396 33.958 4.869 2.391 6.919 2.804 13.724 2.762 12.193-.075 20.593-4.649 26.27-14.306 2.427-4.13 2.73-5.643 2.73-13.645 0-7.951-.31-9.525-2.661-13.5-1.463-2.475-3.938-5.713-5.5-7.196-7.043-6.689-21.37-9.469-31.007-6.018M699 1786v145h46v-290h-46v145m525-91.504v53.496l-6.25-5.062c-8.366-6.775-24.004-14.379-36.25-17.627-9.14-2.424-11.634-2.653-29-2.658-17.747-.005-19.594.172-28 2.689-40.769 12.204-66.425 43.671-71.564 87.774-4.819 41.355 9.05 79.891 36.672 101.899 25.477 20.298 63.877 26.324 98.392 15.439 14.618-4.611 24.554-10.506 34.75-20.621l6.25-6.199V1931h41v-290h-46v53.496m732 .132v53.628l-3.25-2.639c-21.237-17.245-44.544-24.627-73.653-23.331-26.258 1.17-47.412 10.075-64.647 27.214-15.327 15.242-24.328 33.01-28.945 57.138-1.952 10.2-1.961 33.258-.017 44.303 5.959 33.859 24.726 60.507 52.512 74.565 14.655 7.414 33.989 11.123 53 10.167 25.338-1.274 47.193-10.193 63.75-26.017l6.25-5.973V1931h41v-290h-46v53.628m-1398.794 27.446c-29.882 2.605-54.218 14.792-66.984 33.543-9.493 13.943-10.695 36.649-2.768 52.292 7.194 14.196 23.773 26.245 44.577 32.398 11.452 3.386 11.464 3.388 33.976 6.67 29.189 4.254 39.019 8.305 43.225 17.814 5.504 12.443-2.441 24.151-19.582 28.857-23.62 6.485-66.523-1.874-87.698-17.087l-4.816-3.46-10.568 16.456c-5.812 9.05-10.568 16.634-10.568 16.853 0 .85 15.929 10.543 23.924 14.557 9.583 4.812 24.6 9.945 37.076 12.674 6.909 1.511 12.712 1.854 31 1.833 21.153-.025 23.122-.188 32.897-2.723 19.857-5.149 36.651-15.517 45.373-28.012 7.753-11.107 10.037-18.837 9.969-33.739-.058-12.519-2.266-20.638-8.046-29.58-10.216-15.807-30.803-25.757-64.193-31.025-38.152-6.02-45.997-8.329-52.404-15.421-3.965-4.388-5.232-9.897-3.639-15.816 1.558-5.783 5.264-9.69 12.37-13.038 7.636-3.599 13.224-4.782 26.673-5.647 18.528-1.191 36.505 2.65 54.94 11.74 5.742 2.831 10.599 4.729 10.794 4.217.194-.511 4.574-7.68 9.733-15.93l9.379-15-2.673-2.311c-4.303-3.721-23.913-12.847-33.661-15.664-17.543-5.071-39.317-7.107-58.306-5.451m312.294 1.859c-11.216 2.344-17.078 4.321-26 8.767-27.337 13.625-46.239 40.113-51.996 72.865-2.029 11.544-2.064 35.147-.067 46.435 8.599 48.628 44.642 81.371 92.169 83.732 31.002 1.539 60.617-8.724 78.34-27.149 1.896-1.971 3.808-3.583 4.25-3.583.442 0 .804 5.85.804 13v13h41v-205h-41v13.5c0 7.425-.273 13.5-.606 13.5-.333 0-3.875-3.037-7.871-6.75-8.547-7.941-15.573-12.344-26.823-16.81-12.414-4.927-21.369-6.569-38.2-7.002-11.955-.308-16.827-.004-24 1.495m525 0c-21.427 4.478-37.64 13.115-51.065 27.203-19.225 20.175-28.45 45.011-28.574 76.931-.064 16.256 1.305 26.213 5.354 38.933 13.022 40.919 46.089 66.631 88.391 68.732 31.002 1.539 60.617-8.724 78.34-27.149 1.896-1.971 3.808-3.583 4.25-3.583.442 0 .804 5.85.804 13v13h41v-205h-41v13.5c0 7.425-.273 13.5-.606 13.5-.333 0-3.875-3.037-7.871-6.75-8.547-7.941-15.573-12.344-26.823-16.81-12.414-4.927-21.369-6.569-38.2-7.002-11.955-.308-16.827-.004-24 1.495M1693 1828.5V1931h46v-205h-46v102.5m-810.742-62.931c-12.115 2.655-25.104 10.929-33.211 21.155-9.05 11.417-13.159 24.63-13.146 42.276.016 20.819 5.085 33.991 18.178 47.234 12.905 13.052 27.653 18.427 47.921 17.463 24.378-1.159 42.95-12.79 53.009-33.197 4.896-9.933 6.416-17.479 6.444-32 .029-14.537-1.835-22.674-7.789-34-7.146-13.596-23.541-25.736-39.164-29.002-8.597-1.797-23.872-1.764-32.242.071m262.742-.009c-23.165 4.993-41.393 24.534-45.662 48.951-1.832 10.481-1.304 25.552 1.228 34.989 2.547 9.496 8.244 19.305 15.433 26.571 11.499 11.623 23.84 16.869 41.501 17.642 20.847.914 35.36-4.318 48.49-17.479 12.893-12.922 17.968-26.271 17.995-47.324.027-21.206-4.947-33.996-18.439-47.41-9.156-9.103-17.226-13.619-28.624-16.016-8.687-1.828-23.252-1.793-31.922.076m262.258.009c-12.115 2.655-25.104 10.929-33.211 21.155-9.05 11.417-13.159 24.63-13.146 42.276.016 20.819 5.085 33.991 18.178 47.234 12.905 13.052 27.653 18.427 47.921 17.463 24.378-1.159 42.95-12.79 53.009-33.197 4.896-9.933 6.416-17.479 6.444-32 .029-14.537-1.835-22.674-7.789-34-7.146-13.596-23.541-25.736-39.164-29.002-8.597-1.797-23.872-1.764-32.242.071m468.871.026c-10.221 2.236-21.294 8.741-29.109 17.099-11.696 12.509-17.02 26.801-17.02 45.688 0 21.408 5.605 35.594 19.408 49.118 11.162 10.937 25.724 16.5 43.19 16.5 20.669 0 37.077-7.462 49.521-22.521 16.689-20.196 18.567-56.683 4.09-79.479-8.304-13.075-22.925-23.472-37.361-26.568-8.057-1.728-24.45-1.647-32.719.163m-272.698 116.158c-6.26 2.244-10.112 5.192-13.672 10.463-9.375 13.88-4.552 32.56 10.431 40.403 2.028 1.062 6.444 1.904 11.401 2.174 6.642.362 8.923.073 12.733-1.612 7.284-3.222 11.406-6.929 14.314-12.873 2.199-4.496 2.678-6.83 2.639-12.873-.052-8.037-2.085-13.4-7.117-18.778-6.902-7.377-20.74-10.486-30.729-6.904" fill="#1976D2" fill-rule="evenodd"/></svg>